<?xml version="1.0" standalone="no"?>
<!DOCTYPE svg PUBLIC "-//W3C//DTD SVG 20010904//EN"
 "http://www.w3.org/TR/2001/REC-SVG-20010904/DTD/svg10.dtd">
<svg version="1.0" xmlns="http://www.w3.org/2000/svg"
 width="32.000000pt" height="32.000000pt" viewBox="0 0 32.000000 32.000000"
 preserveAspectRatio="xMidYMid meet">
<metadata>
Created by potrace 1.16, written by Peter Selinger 2001-2019
</metadata>
<g transform="translate(0.000000,32.000000) scale(0.100000,-0.100000)"
fill="#000000" stroke="none">
<path d="M8 303 c-2 -4 -2 -72 0 -151 3 -113 7 -142 18 -142 10 0 14 12 14 41
0 23 4 38 10 34 5 -3 24 2 41 11 22 11 43 14 68 9 85 -15 120 -16 140 -6 19
11 21 20 21 98 0 84 0 85 -22 78 -26 -9 -59 -9 -134 1 -34 4 -62 1 -85 -9 -34
-14 -35 -14 -34 12 0 24 -28 43 -37 24z"/>
</g>
</svg>
